<svg width="759" height="281" viewBox="0 0 759 281" fill="none" xmlns="http://www.w3.org/2000/svg">
<rect width="759" height="281" fill="#F5F5F5"/>
<path d="M428.5 25.2001C428.5 3.88572 455.188 -5.7175 468.769 10.7101L553.28 112.936C565.35 127.537 565.523 148.603 553.694 163.4L469.583 268.611C455.965 285.645 428.5 276.016 428.5 254.208C428.5 248.899 430.331 243.753 433.685 239.637L495.57 163.687C507.711 148.787 507.538 127.357 495.157 112.655L433.846 39.8487C430.393 35.7485 428.5 30.5604 428.5 25.2001Z" fill="#00D1FF"/>
<path d="M574 262.75C574 253.499 581.499 246 590.75 246H741.75C751.001 246 758.5 253.499 758.5 262.75C758.5 272.001 751.001 279.5 741.75 279.5H590.75C581.499 279.5 574 272.001 574 262.75Z" fill="#00D1FF"/>
<path d="M0.184927 281V9.55003L19.8929 0.253802H137.769V2.11305L122.709 34.0921H37.3699V123.708H137.769V125.567L122.709 157.546H37.3699V247.162H168.819V249.021L153.759 281H0.184927ZM258.248 281C214.866 281 193.175 259.309 193.175 215.926V195.475L228.5 178.741H230.36V215.926C230.36 236.998 239.656 247.534 258.248 247.534H312.166C330.759 247.534 340.055 236.998 340.055 215.926V34.0921H233.52V32.2328L248.58 0.253802H377.24V215.926C377.24 259.309 355.549 281 312.166 281H258.248Z" fill="#3C3B5B"/>
</svg>
